<svg xmlns="http://www.w3.org/2000/svg" xmlns:xlink="http://www.w3.org/1999/xlink" width="522.809" height="341.504" viewBox="0 0 522.809 341.504"><defs><linearGradient id="a" x1="-0.03" y1="0.503" x2="0.97" y2="0.503" gradientUnits="objectBoundingBox"><stop offset="0" stop-color="gray" stop-opacity="0.251"/><stop offset="0.54" stop-color="gray" stop-opacity="0.122"/><stop offset="1" stop-color="gray" stop-opacity="0.102"/></linearGradient></defs><g transform="translate(-0.038 0.024)"><path d="M305.384,142.333c-33.019,5.579-65.991,3.188-97.71-.291s-63.359-8.022-96.391-6.653c-21.249.879-44.913,5.089-59.75,17.326C37.252,164.484,35.027,180.366,35,194.7c-.037,10.784.9,21.943,8.54,30.534,5.311,5.959,13.486,10.229,19.644,15.73,21.425,19.107,14.911,49.192.851,74.772-6.6,12-14.666,23.8-19.158,36.086s-5.089,25.445,2.952,35.461c7.967,9.933,23.377,15.531,39.445,18.432,32.635,5.894,68.994,2.234,104.173-2.725,77.858-11.016,154.91-28.189,231.8-45.32,28.448-6.343,57.02-12.713,84.427-21.855,15.221-5.089,30.719-11.423,40.55-21.281,12.491-12.491,12.806-29.577.768-39.787-20.2-17.118-65.917-13.319-81.54-32.889-8.6-10.775-4.853-25.408,1.989-38.334,14.67-27.721,43.025-55.11,39.352-82.748-2.535-18.968-21.878-34.666-47.8-38.755-27.175-4.284-62.077,3.84-77.723,22.928C367.174,124.618,334.54,137.392,305.384,142.333Z" transform="translate(-34.96 -80.93)" fill="#6c63ff" opacity="0.1"/><rect width="131.126" height="30.363" transform="translate(166.571 166.186)" fill="#565661"/><rect width="131.126" height="30.363" transform="translate(166.571 166.186)" opacity="0.1"/><path d="M379.2,427.03l.921,81.059-12.611,31.839-.976-112.9Z" transform="translate(-196.938 -229.482)" fill="#bcbec9"/><path d="M362.99,371.84l127.666.768v22.614H362.99Z" transform="translate(-195.036 -199.825)" fill="#565661"/><path d="M615.33,427.03l10.923,1.541V538.7L615.33,505.013Z" transform="translate(-330.633 -229.482)" fill="#bcbec9"/><rect width="61.527" height="130.742" transform="translate(299.77 167.403)" fill="#efeff0"/><rect width="51.682" height="100.499" transform="translate(304.692 171.034)" fill="#565661"/><rect width="51.682" height="100.499" transform="translate(304.692 171.034)" opacity="0.1"/><rect width="51.682" height="22.304" transform="translate(304.692 173.093)" fill="#565661"/><rect width="51.682" height="47.374" transform="translate(304.692 197.548)" fill="#565661"/><rect width="51.682" height="47.374" transform="translate(304.692 247.847)" fill="#565661"/><rect width="51.682" height="47.374" transform="translate(304.692 247.847)" opacity="0.1"/><ellipse cx="3.331" cy="4.256" rx="3.331" ry="4.256" transform="translate(303.517 298.145)" fill="#565661"/><ellipse cx="3.331" cy="4.256" rx="3.331" ry="4.256" transform="translate(349.712 298.348)" fill="#565661"/><path d="M354.889,506.23h4.46l-1.226-141.91H351.35Z" transform="translate(-188.781 -195.784)" fill="#efeff0"/><path d="M638.94,361.87V503.683h4.15V363Z" transform="translate(-343.32 -194.467)" fill="#efeff0"/><path d="M366.46,419.38v5.08H492.52v-3.692Z" transform="translate(-196.901 -225.371)" fill="#efeff0"/><path d="M365.993,341.26H525.808l23.225,7.689v4.46L349.69,351.873v-4.538Z" transform="translate(-187.889 -183.392)" fill="#fff"/><path d="M349.69,354.39,549.032,356v4.46L349.69,358.928Z" transform="translate(-187.889 -190.448)" fill="#bcbec9"/><path d="M422.5,548.592l-.925-.139v-.116c-.028-.217-.06-.43-.093-.648.379.3.74.6,1.073.9Z" transform="translate(-242.64 -331.761)" fill="url(#a)"/><path d="M372.567,703.072c.6-.139,1.212-.254,1.823-.338a21.938,21.938,0,0,1,12.315,1.813c-.389,2.859-.773,5.815.051,8.578.574,1.943,1.726,3.7,1.971,5.727a3.377,3.377,0,0,1,2.66,2.35,5.111,5.111,0,0,1,.264,1.647,8.792,8.792,0,0,1-.259,2.054,2.073,2.073,0,0,1-2.221,1.851c-3.581.407-7.092-1-10.423-2.387l-6.477-2.693c-.759-.315-1.522-.634-2.248-1.023a12.318,12.318,0,0,1-3.6-2.947,1.642,1.642,0,0,1-.43-.777c-.12-.814.833-1.3,1.439-1.851a2.885,2.885,0,0,0,.463-.564c.717-1.083.786-2.577,1.217-3.854,1.018-3.03,4.164-4.983,5.274-7.939.06-.162.116-.324.162-.49" transform="translate(-212.815 -414.805)" fill="#a26565"/><path d="M391.651,737.117a8.79,8.79,0,0,1-.259,2.054,2.073,2.073,0,0,1-2.221,1.851c-3.581.407-7.092-1-10.423-2.387l-6.477-2.693c-.759-.315-1.522-.634-2.248-1.023a12.32,12.32,0,0,1-3.6-2.947,1.642,1.642,0,0,1-.43-.777c-.12-.814.833-1.3,1.439-1.851a2.887,2.887,0,0,0,.463-.565,56.745,56.745,0,0,1,5.367,1.943,16.29,16.29,0,0,1,3.9,1.633c1.7,1.092,2.929,2.776,4.372,4.164s3.308,2.651,5.32,2.48a8.792,8.792,0,0,0,3.026-1.046Z" transform="translate(-212.815 -429.071)" opacity="0.1"/><path d="M390.478,599.425a2.142,2.142,0,0,1-.787,2.313c-.606.375-1.388.324-1.989.731a3.413,3.413,0,0,0-.981,2.457c-.463,3.086-1.994,5.885-3.3,8.721s-2.415,5.931-1.934,9.012c.329,2.091,1.356,4.321.393,6.2-.236.463-.588.874-.856,1.323-1.318,2.2-.569,4.992-.62,7.555a1.5,1.5,0,0,1-.18.819,2.261,2.261,0,0,1-.731.564,3.877,3.877,0,0,0-1.578,2.975,11.369,11.369,0,0,0,.416,3.451,2.054,2.054,0,0,0,.569,1.2,2.126,2.126,0,0,0,1.244.352,27.686,27.686,0,0,1,8.448,2.054,27.4,27.4,0,0,0,5.32,2,1.388,1.388,0,0,0,1.092-.116,1.5,1.5,0,0,0,.463-.8,18.817,18.817,0,0,0,1.2-7.245c-.106-1.055-.389-2.086-.463-3.141-.324-4.164,2.494-7.92,3.387-12.029.4-1.851.4-3.766.689-5.635.777-5.122,3.6-9.715,4.686-14.781a16.074,16.074,0,0,1,.7-2.776c.81-1.962,2.683-3.553,2.725-5.677a2.212,2.212,0,0,0-.352-1.323,3,3,0,0,0-1.652-.925,56.39,56.39,0,0,0-7.657-1.545,14.5,14.5,0,0,0-3.6-.25,10.6,10.6,0,0,0-4.4,1.555C388.942,597.57,390.089,597.833,390.478,599.425Z" transform="translate(-219.225 -357.125)" fill="#454b69"/><path d="M390.478,599.425a2.142,2.142,0,0,1-.787,2.313c-.606.375-1.388.324-1.989.731a3.413,3.413,0,0,0-.981,2.457c-.463,3.086-1.994,5.885-3.3,8.721s-2.415,5.931-1.934,9.012c.329,2.091,1.356,4.321.393,6.2-.236.463-.588.874-.856,1.323-1.318,2.2-.569,4.992-.62,7.555a1.5,1.5,0,0,1-.18.819,2.261,2.261,0,0,1-.731.564,3.877,3.877,0,0,0-1.578,2.975,11.369,11.369,0,0,0,.416,3.451,2.054,2.054,0,0,0,.569,1.2,2.126,2.126,0,0,0,1.244.352,27.686,27.686,0,0,1,8.448,2.054,27.4,27.4,0,0,0,5.32,2,1.388,1.388,0,0,0,1.092-.116,1.5,1.5,0,0,0,.463-.8,18.817,18.817,0,0,0,1.2-7.245c-.106-1.055-.389-2.086-.463-3.141-.324-4.164,2.494-7.92,3.387-12.029.4-1.851.4-3.766.689-5.635.777-5.122,3.6-9.715,4.686-14.781a16.074,16.074,0,0,1,.7-2.776c.81-1.962,2.683-3.553,2.725-5.677a2.212,2.212,0,0,0-.352-1.323,3,3,0,0,0-1.652-.925,56.39,56.39,0,0,0-7.657-1.545,14.5,14.5,0,0,0-3.6-.25,10.6,10.6,0,0,0-4.4,1.555C388.942,597.57,390.089,597.833,390.478,599.425Z" transform="translate(-219.225 -357.125)" opacity="0.05"/><path d="M342.758,607.993h-3.946l-2.582-53.037-.18-3.016,3.354-1.18.227,3.206Z" transform="translate(-180.559 -295.969)" fill="#565661"/><path d="M339.631,553.966l-3.4.99-.18-3.016,3.354-1.18Z" transform="translate(-180.559 -295.969)" opacity="0.1"/><path d="M324.223,602.807l-6.509.787-29.988-68.059-8.087-.592-14.2,4.145-2.762,81.031h-6.509l2.563-83.992-15.586.4-27.814,69.239H209.41l29.253-80.92,1.129-3.118,43.595-1.494,10.867,6.093.139.352Z" transform="translate(-112.508 -279.564)" fill="#565661"/><path d="M363.33,607.6c-9.368,2.822-19.093,5.9-19.093,5.9s-8.869,3.1-12.625,0a5.673,5.673,0,0,0-1.568-.865,7.719,7.719,0,0,0,1.568.865l-24.011-7.74,1.124-3.114,43.6-1.494,10.867,6.093Z" transform="translate(-181.445 -360.494)" opacity="0.1"/><path d="M332.2,581.476l17.751-3.946s42.415,7.893,45.57,11.048c0,0-33.93,6.9-37.677,9.253S331.806,602.781,332.2,581.476Z" transform="translate(-194.664 -347.796)" fill="#fff"/><path d="M301.365,442.885c-1.388,4.4-5.177,8.365-9.79,8.554a1.707,1.707,0,0,1-.976-.176,1.545,1.545,0,0,1-.356-1.851,8.006,8.006,0,0,0,.713-1.9,1.24,1.24,0,0,0-.028-.412c-.12-.551-.569-1.041-1.1-.925a1.851,1.851,0,0,0,.393-2.457,5.549,5.549,0,0,1-.564-.759c-.384-.786.213-1.67.463-2.512.514-1.851-.791-3.7-.9-5.63-.092-1.726.782-3.349,1-5.061.347-2.776-1.032-5.436-1.194-8.207a17.38,17.38,0,0,1,.9-5.714,20.656,20.656,0,0,0,1.018-5.089c0-1.263-.217-2.512-.278-3.77a6.564,6.564,0,0,1,.606-3.35,2.679,2.679,0,0,1,1.522-1.3,1.926,1.926,0,0,1,2.734,1.721c.37,2.447.157,4.946.643,7.4a34.7,34.7,0,0,0,2.031,6.7c.819,1.952,1.814,3.84,2.443,5.862a32.3,32.3,0,0,1,1.013,5.089C302.281,433.73,302.767,438.486,301.365,442.885Z" transform="translate(-171.459 -253.567)" fill="#00baf2"/><path d="M514.757,717.747a7.176,7.176,0,0,1-5.057,2.979c-2.008.25-4.094-.254-6.042.3a1.851,1.851,0,0,0-1.388,1.069,11.365,11.365,0,0,0-.088,1.133c-.227,1.235-1.851,1.513-3.114,1.5l-5.209-.032a4.3,4.3,0,0,1-3.058-.81,2.276,2.276,0,0,1-.046-3,1.886,1.886,0,0,1,.583-.463,1.851,1.851,0,0,1-1.249-1.485,5.524,5.524,0,0,1,.1-2.04c0-1.934.463-5.172,1.823-6.685,1.67-1.883,4.566-4.316,7.088-4.821a5.552,5.552,0,0,1,4.8,1.365c1.194,1.11,2.063,2.85,3.7,3.044a9.192,9.192,0,0,0,2.637-.463,4.909,4.909,0,0,1,5,2.642,5.209,5.209,0,0,1,.463,1.448A6.014,6.014,0,0,1,514.757,717.747Z" transform="translate(-279.479 -416.452)" fill="#a26565"/><path d="M514.964,727.2a7.176,7.176,0,0,1-5.057,2.979c-2.008.25-4.094-.254-6.042.3a1.851,1.851,0,0,0-1.388,1.069,11.357,11.357,0,0,0-.088,1.133c-.227,1.235-1.851,1.513-3.114,1.5l-5.209-.032a4.3,4.3,0,0,1-3.058-.81,2.276,2.276,0,0,1-.046-3,54.49,54.49,0,0,0,8.961-.62c1.217-.245,2.415-.569,3.646-.74,2.665-.379,5.5-.055,7.948-1.184a8.983,8.983,0,0,0,4.367-4.909A6.014,6.014,0,0,1,514.964,727.2Z" transform="translate(-279.686 -425.907)" opacity="0.1"/><path d="M392.9,620.825a11.589,11.589,0,0,1-6.352,2.674,6.457,6.457,0,0,1-5.949-2.952c-1.67-2.975-.19-7.111-2.235-9.84-.638-.856-1.559-1.462-2.235-2.29a2.579,2.579,0,0,1-.463-2.952c-.726.278-1.494-.426-1.707-1.175a21.468,21.468,0,0,1-.208-2.313c-.338-2.012-2.313-3.3-3.262-5.089s-.819-4.1-.925-6.218a23.6,23.6,0,0,0-5.459-14.041,3.282,3.282,0,0,0-2.415-1.476,4.556,4.556,0,0,0-2.42-4.164,11.993,11.993,0,0,0-4.895-1.3c-17.085-1.684-34.888,4.668-51.2-.676-4.538-1.485-8.915-3.969-11.691-7.865a13.75,13.75,0,0,1-2.447-10.4v-.065c.643-3.285,2.378-4.094,5.251-5.593a63.023,63.023,0,0,1,10.358-4.344,42.043,42.043,0,0,1,21.573-1.36c3.345.749,6.569,1.989,9.919,2.716,1.319.287,2.646.49,3.983.662,2.077.259,4.164.43,6.255.671a94.627,94.627,0,0,1,19.644,4.418,25.727,25.727,0,0,1,6.787,3.183,15.036,15.036,0,0,1,6.033,9.928c.194,1.36.2,2.776.5,4.094a20.822,20.822,0,0,0,1.11,3.238,215.408,215.408,0,0,1,9.665,30.072,7.31,7.31,0,0,0,.773,2.174c.592.958,1.61,1.6,2.207,2.558,1.388,2.258.051,5.408,1.282,7.759.426.814,1.133,1.457,1.559,2.271C397.316,615.8,395.267,618.988,392.9,620.825Z" transform="translate(-171.366 -326.844)" fill="#454b69"/><path d="M457.26,596.572a7.633,7.633,0,0,0,1.679-1.85,3.452,3.452,0,0,0,.509-2.392,6.842,6.842,0,0,1-1.8,5.885c-1.161,1.189-3.34,2.355-5.038,1.948C452.851,598.8,456.182,597.488,457.26,596.572Z" transform="translate(-259.368 -355.749)" opacity="0.1"/><path d="M340.592,544.61a3.1,3.1,0,0,1-2.054,2.119,8.556,8.556,0,0,1-3.049.356h-.925c-12.14-.268-24.409-2.961-36.266-.393a26.249,26.249,0,0,0-4.192,1.235,18.921,18.921,0,0,0-4.816,2.776v-.065c.643-3.285,2.378-4.094,5.251-5.593a63.014,63.014,0,0,1,10.345-4.3,42.042,42.042,0,0,1,21.573-1.36c3.345.749,6.57,1.989,9.919,2.716,1.318.287,2.646.49,3.983.662A3.2,3.2,0,0,1,340.592,544.61Z" transform="translate(-171.606 -326.844)" opacity="0.1"/><path d="M339.03,535.24a3.1,3.1,0,0,1-2.054,2.124,8.454,8.454,0,0,1-3.049.352H333c-12.14-.268-24.409-2.961-36.266-.393a26.714,26.714,0,0,0-4.192,1.231,19.058,19.058,0,0,0-5.02,2.961q-.532-1.462-1.059-2.929c-.426-1.166.925-1.425,1.184-2.471a5.631,5.631,0,0,0-.268-2.267,3.952,3.952,0,0,1-.074-.56,3.561,3.561,0,0,1,1.883-3.535,52.178,52.178,0,0,1,13.652-5.908,33.775,33.775,0,0,1,7.587-1.471,37.226,37.226,0,0,1,10.835,1.319,46.464,46.464,0,0,1,12.547,4.784,11.8,11.8,0,0,1,4.77,4.464,3.516,3.516,0,0,1,.449,2.3Z" transform="translate(-170.044 -318.136)" fill="#a26565"/><path d="M302.625,442.923c-1.388,4.4-5.177,8.365-9.789,8.554a1.707,1.707,0,0,1-.976-.176,1.545,1.545,0,0,1-.356-1.851,8.006,8.006,0,0,0,.712-1.9,1.24,1.24,0,0,0-.028-.412c2.447-3.451,4.821-6.94,5.76-11.025a5.9,5.9,0,0,0,.171-2.161,19.223,19.223,0,0,0-.777-2.392,12.474,12.474,0,0,1-.1-4.409,40.713,40.713,0,0,0-3.164-19.01,17.836,17.836,0,0,1-1.554-4.446,2.679,2.679,0,0,1,1.522-1.3,1.926,1.926,0,0,1,2.734,1.721c.37,2.447.157,4.946.643,7.4a34.7,34.7,0,0,0,2.031,6.7c.819,1.952,1.814,3.84,2.443,5.862a32.3,32.3,0,0,1,1.013,5.089C303.541,433.767,304.027,438.523,302.625,442.923Z" transform="translate(-172.719 -253.605)" opacity="0.1"/><path d="M340.11,535.219a3.1,3.1,0,0,1-2.054,2.124,8.454,8.454,0,0,1-3.049.352h-.925a20.157,20.157,0,0,0-13.417-3.239,21.671,21.671,0,0,1-4.525.393c-3.049-.278-5.519-2.47-8.235-3.872a17.293,17.293,0,0,0-19.167,2.6l-.264.231a3.958,3.958,0,0,1-.074-.56,3.562,3.562,0,0,1,1.883-3.535,52.186,52.186,0,0,1,13.653-5.908,33.782,33.782,0,0,1,7.587-1.471,37.228,37.228,0,0,1,10.835,1.318,46.463,46.463,0,0,1,12.547,4.784,12.029,12.029,0,0,1,4.756,4.483A3.516,3.516,0,0,1,340.11,535.219Z" transform="translate(-171.125 -318.115)" opacity="0.1"/><path d="M345.7,397.806l-.065.167c-1.036,2.688-2.942,4.96-4.164,7.578-1.541,3.317-1.92,7.037-2.262,10.682a55.494,55.494,0,0,0-.352,9.4c.592,7.717,4.363,15.036,5.371,22.6a25.12,25.12,0,0,1,.19,5.279,5.212,5.212,0,0,1-1.027,3.137,2.159,2.159,0,0,1-2.975.356c.356-.68.717-1.356,1.078-2.036-2.114-1.642-5.3-.463-7.768-1.49a12.51,12.51,0,0,1-2.868-2.04,20.115,20.115,0,0,0-14.985-4.377,21.38,21.38,0,0,1-4.525.4c-3.049-.282-5.519-2.471-8.235-3.872a17.3,17.3,0,0,0-19.167,2.6c-.648.6-1.517,1.3-2.313.925a1.925,1.925,0,0,1-.717-.782c-3.03-5.177-.8-11.853,2.438-16.9s7.527-9.692,8.86-15.535a5.8,5.8,0,0,0,.171-2.161,19.212,19.212,0,0,0-.777-2.392,12.476,12.476,0,0,1-.1-4.409,40.713,40.713,0,0,0-3.155-19.014c-.74-1.726-1.619-3.474-1.619-5.348,0-2.952,2.114-5.4,3.863-7.772,2.013-2.73,3.7-5.751,6.25-7.994,2.415-2.133,5.912-3.437,8.9-2.355a55.486,55.486,0,0,1,15.526-1.513,11.893,11.893,0,0,1,5.251,1.147c1.693.925,2.91,2.572,4.576,3.558a24.937,24.937,0,0,0,3.942,1.578,16.29,16.29,0,0,1,8.494,7.6c1.85,3.585,2.313,7.708,2.72,11.723C346.641,390.32,347.011,394.248,345.7,397.806Z" transform="translate(-166.335 -231.379)" fill="#00baf2"/><path d="M396.1,440.925c.592,7.717,4.363,15.036,5.371,22.6-2.017-1.707-4.825-3.424-5.2-5.408-.416-2.147-1.749-4.96-1.971-7.129s1.3-4.821-.3-6.31c-.777-.726,1.291-.523.532-1.268-1.707-1.661-2.128-4.219-2.235-6.593-.18-4.2.352-8.448-.421-12.579a63.325,63.325,0,0,0-2.2-7.453c-.9-2.882-1.545-5.834-2.193-8.79a61.576,61.576,0,0,1-1.388-7.985,13.1,13.1,0,0,1,.925-6.875,6.342,6.342,0,0,1,5.459-3.789c7.828.1,6.477,10.715,8.2,15.619a39.588,39.588,0,0,1,1.994,5.875,15.574,15.574,0,0,1,.222,2.415c-1.036,2.688-2.942,4.959-4.164,7.578-1.541,3.317-1.92,7.037-2.262,10.682A53.791,53.791,0,0,0,396.1,440.925Z" transform="translate(-223.584 -246.675)" opacity="0.1"/><path d="M401.81,404.66a39.576,39.576,0,0,1,1.994,5.876c.625,3.41-.342,7.032.708,10.335a18,18,0,0,1,.685,2.161,18.873,18.873,0,0,1-.028,3.192,18.245,18.245,0,0,0,1.022,5.038,90.042,90.042,0,0,1,3.215,17.192,21.553,21.553,0,0,0,.736,4.626,15.352,15.352,0,0,1,.5,1.564,8.087,8.087,0,0,1,.088,2.142,40.747,40.747,0,0,0-.125,6.8,9.433,9.433,0,0,0,2.776,6.061,8.859,8.859,0,0,1-4.6.171c-2.082-.68-3.331-2.776-4.391-4.682-1.342-2.433-6.44-4.626-6.967-7.361-.412-2.142-1.744-4.955-1.966-7.129s1.3-4.816-.3-6.306c-.773-.726,1.3-.527.532-1.268-1.7-1.661-2.124-4.219-2.23-6.6-.18-4.2.347-8.443-.421-12.575a63.647,63.647,0,0,0-2.2-7.458c-.9-2.878-1.545-5.829-2.193-8.79a60.954,60.954,0,0,1-1.388-7.985,13.069,13.069,0,0,1,.925-6.879A6.361,6.361,0,0,1,393.635,389C401.431,389.138,400.089,399.756,401.81,404.66Z" transform="translate(-224.201 -246.487)" fill="#00baf2"/><path d="M368,423.141c.731.856,1.67,1.8,2.776,1.628a.6.6,0,0,1-.819.194,1.758,1.758,0,0,1-.615-.708l-1.582-2.669c-.208-.347-1.642-2.369-1.994-1.2C365.623,420.879,367.64,422.725,368,423.141Z" transform="translate(-212.696 -263.159)" opacity="0.1"/><path d="M358.754,435.727a3.525,3.525,0,0,0-1.032-2.313,5.782,5.782,0,0,0-1.911-1.152,13.84,13.84,0,0,0-5.672-1.194c.685,1,2.882,1.6,3.983,2.161Q356.464,434.437,358.754,435.727Z" transform="translate(-204.305 -269.088)" opacity="0.1"/><path d="M360.465,474.111c-.319,2.369-2.258,4.164-4.219,5.552s-4.164,2.581-5.445,4.589c-.888,1.388-1.286,3-2.04,4.446a51.528,51.528,0,0,1-3.072,4.437,7.24,7.24,0,0,0-1.467,5.066.6.6,0,0,0,.213.426.606.606,0,0,0,.588-.065c2.017-1.055,2.813-3.465,3.659-5.552a64.159,64.159,0,0,1,3-6.162,5.677,5.677,0,0,1,1.98-2.447,17.359,17.359,0,0,1,1.952-.68,6.566,6.566,0,0,0,2.41-1.892,15.887,15.887,0,0,0,3.7-10.784c-.028-.828-.074-4.816-1.319-3.585S360.678,472.5,360.465,474.111Z" transform="translate(-201.088 -288.522)" opacity="0.1"/><path d="M332.972,281.849c3.979,1.735,7.4,5.552,7.277,9.877-.106,4.543-3.909,8.823-2.6,13.176.759,2.526,3.044,4.219,4.853,6.139,6.889,7.291,6.875,20.018-.037,27.3-2.646,2.776-6.047,4.751-8.846,7.4-9.868,9.3-10.289,25.385-5.006,37.872A61.6,61.6,0,0,1,316.3,385c-1.938,0-4.312-.328-5.015-2.137-.648-1.67.463-3.928-.814-5.163a4.175,4.175,0,0,0-2.313-.791c-5.209-.842-9.484-5-11.436-9.9s-1.851-10.414-.731-15.568c.8-3.724,2.04-7.823.194-11.154-2.313-4.192-8.966-5.959-8.864-10.752.083-3.928,4.714-5.839,7.342-8.758,4.849-5.376,2.54-13.717,2.531-20.962,0-6.375,2.23-12.954,6.977-17.2C311.228,276.241,324.825,278.309,332.972,281.849Z" transform="translate(-170.546 -187.108)" fill="#a26565"/><g transform="translate(116.79 103.642)" opacity="0.1"><path d="M296.963,391.232c-2.031-3.664-7.365-5.478-8.605-9.082a5.131,5.131,0,0,0-1,2.9c-.1,4.793,6.542,6.56,8.864,10.756a8.739,8.739,0,0,1,.925,4.821C297.879,397.4,298.522,394.044,296.963,391.232Z" transform="translate(-287.357 -346.448)"/><path d="M397.219,313.2c.833-2.429,2.04-4.881,2.1-7.4a6.931,6.931,0,0,0-.023-.819C398.366,307.765,396.942,310.467,397.219,313.2Z" transform="translate(-346.374 -304.98)"/><path d="M309.222,328.8c1.592-5.029.217-11.265.213-16.845,0-.675.028-1.356.079-2.031a26.714,26.714,0,0,0-.823,6.6C308.7,320.5,309.4,324.822,309.222,328.8Z" transform="translate(-298.821 -307.635)"/><path d="M388.383,388.373c-2.646,2.776-6.047,4.751-8.846,7.4-5,4.705-7.564,11.15-8.207,17.983a26.448,26.448,0,0,1,7.467-13.417c2.776-2.637,6.2-4.6,8.846-7.4A19.658,19.658,0,0,0,392.8,380.42,18.788,18.788,0,0,1,388.383,388.373Z" transform="translate(-332.481 -345.518)"/><path d="M326.247,464.232c-1.938,0-4.312-.333-5.015-2.142-.648-1.666.463-3.923-.814-5.163a4.188,4.188,0,0,0-2.313-.791c-5.2-.837-9.479-5-11.432-9.9a24.746,24.746,0,0,1-1.388-11.46c-.037.153-.069.305-.1.463-1.1,5.154-1.217,10.673.731,15.572s6.227,9.059,11.432,9.9a4.125,4.125,0,0,1,2.313.791c1.291,1.24.167,3.5.814,5.163.7,1.809,3.077,2.165,5.015,2.142a61.629,61.629,0,0,0,12.316-1.388,41.341,41.341,0,0,1-1.494-4.131A61.413,61.413,0,0,1,326.247,464.232Z" transform="translate(-296.512 -374.729)"/></g><path d="M384.365,451.068c1.143.86,2.383-2.42,1.675-3.238A15.717,15.717,0,0,0,384.365,451.068Z" transform="translate(-222.689 -278.1)" opacity="0.1"/><path d="M394.91,577.1a7.5,7.5,0,0,0,3.655-2.036c.726-.893,1.323-4.437-.213-2.739C397.047,573.78,396.432,575.7,394.91,577.1Z" transform="translate(-228.362 -344.753)" opacity="0.1"/><path d="M422.52,569.32a5.316,5.316,0,0,1-1.235,3.012c-.143.148-.463.241-.5.042a11.708,11.708,0,0,0,2.387-1.684c1.564-1.55,1.777-5.367-.606-6.38A36.252,36.252,0,0,1,422.52,569.32Z" transform="translate(-242.264 -340.692)" opacity="0.1"/><path d="M437.875,554.852s-13.13-5.159-17.876-4.626,5.376,8.013,5.376,8.013l6.051,4.081s3.7-1.388,3.946-1.494S437.875,554.852,437.875,554.852Z" transform="translate(-241.163 -333.103)" fill="#454b69"/><path d="M264.84,438.123s9.863-5.718,22.882,1.388,15.188,48.924,15.188,48.924-5.325,42.6,15.207,33.125c0,0,37.474-11.635,41.226-9.072,0,0,3.553,0-3.548,1.578s-34.536,10.271-34.536,10.271-8.869,3.1-12.625,0-14.4.4-15.785-20.911a370.559,370.559,0,0,0-4.932-40.046l-3.659-10.849Z" transform="translate(-158.468 -271.716)" fill="#565661"/><path d="M257.879,504.934s4.34-43.2-2.776-58.788c-6.19-13.583,17.747-7.231,23.993-5.38a4.548,4.548,0,0,1,2.4,1.712c3.7,5.2,16.979,26.065,13.065,53.976,0,0-1.578,24.858,8.286,28.8l-30.391-9.789c-2.466-.8-4.969-1.457-7.495-2.031C261.737,512.7,256.491,510.625,257.879,504.934Z" transform="translate(-152.691 -272.637)" fill="#fff"/><path d="M694.53,609.993h3.946l2.586-53.037.176-3.016-3.354-1.18-.222,3.206Z" transform="translate(-373.192 -297.044)" fill="#565661"/><path d="M701.3,555.966l3.4.99.176-3.016-3.354-1.18Z" transform="translate(-376.83 -297.044)" opacity="0.1"/><path d="M629.364,688.223a8.9,8.9,0,0,1-.555,2.119,3.745,3.745,0,0,1-1.689,2.11,4.464,4.464,0,0,1-1.707.338c-2.179.13-4.483.1-6.357-1.013a11.566,11.566,0,0,1-2.179-1.818,99.4,99.4,0,0,1-11.437-13.6,3.551,3.551,0,0,1-.9-2.776,43.122,43.122,0,0,0,12.385-5.667,5.976,5.976,0,0,1,1.74-.925,9.453,9.453,0,0,1,3.266-.12c1.05.171,1.1.2,1.5,1.388.666,2,.555,4.164,1.3,6.167a19.118,19.118,0,0,0,1.73,3.164C628.4,680.82,629.882,684.637,629.364,688.223Z" transform="translate(-340.976 -395.755)" fill="#a26565"/><path d="M629.364,694.478a8.9,8.9,0,0,1-.555,2.119,3.745,3.745,0,0,1-1.689,2.11,4.467,4.467,0,0,1-1.707.338c-2.179.13-4.483.1-6.357-1.013a11.568,11.568,0,0,1-2.179-1.818,99.41,99.41,0,0,1-11.437-13.6,3.551,3.551,0,0,1-.9-2.776,42.9,42.9,0,0,0,4.238-1.416l.069.051a15.548,15.548,0,0,1,3.456,3.891l3.238,4.557a13.411,13.411,0,0,0,2.031,2.452,13.591,13.591,0,0,0,3.141,1.888c1.522.735,3.044,1.471,4.627,2.064C626.362,693.733,628.092,693.9,629.364,694.478Z" transform="translate(-340.976 -402.01)" opacity="0.1"/><path d="M647.942,600.539a13.925,13.925,0,0,1-1.157,2.207,94.456,94.456,0,0,0-9.864,23.081c-.638-.143-1,.726-.995,1.388s0,1.494-.611,1.735c-.181.07-.384.07-.56.148-.389.176-.5.671-.555,1.1l-.546,4.007a4.971,4.971,0,0,0,2.114,5.968l9.031,7.125c.37.291.828.6,1.272.439,1.013-.37.116-2.184.925-2.919.537-.5,1.388-.125,2.133-.185a2.413,2.413,0,0,0,1.952-1.906,9.065,9.065,0,0,0,.051-2.9,2.627,2.627,0,0,1,.148-1.3,3.154,3.154,0,0,1,1.106-1.059,11.871,11.871,0,0,0,4.862-10.012,5.549,5.549,0,0,1,.065-1.772,4.671,4.671,0,0,1,.837-1.462,135.424,135.424,0,0,0,8.73-14.06c1.564-2.776,3.155-5.593,3.7-8.721a.81.81,0,0,0-.666-1.11,31.455,31.455,0,0,0-4.136-.99c-4.252-.86-8.355-2.188-12.491-3.465S649.187,597.2,647.942,600.539Z" transform="translate(-356.565 -357.476)" fill="#454b69"/><path d="M587.5,604.807l6.514.787L624,537.534l8.087-.592,14.208,4.145,2.757,81.031h6.509L653,538.126l15.586.4L696.4,607.763h5.917l-29.253-80.92-1.124-3.118-43.6-1.494-10.867,6.093-.139.352Z" transform="translate(-315.679 -280.638)" fill="#565661"/><path d="M686.94,609.6c9.369,2.822,19.093,5.9,19.093,5.9s8.869,3.1,12.625,0a5.679,5.679,0,0,1,1.568-.865,7.72,7.72,0,0,1-1.568.865l24.011-7.74-1.11-3.114-43.6-1.494-10.867,6.093Z" transform="translate(-385.288 -361.568)" opacity="0.1"/><path d="M709.242,583.476,691.49,579.53s-42.415,7.893-45.57,11.048c0,0,33.93,6.9,37.677,9.253S709.64,604.781,709.242,583.476Z" transform="translate(-363.245 -348.871)" fill="#fff"/><path d="M602.069,703.231c-1.069,2.036-3.7,2.609-6.014,2.642a25.394,25.394,0,0,1-9.4-1.679,54.684,54.684,0,0,0-5.121-1.985c-2.632-.722-5.552-.662-7.865-2.11a9.252,9.252,0,0,1-2.956-3.206c-.134-.227-.264-.462-.384-.7a9.908,9.908,0,0,1-1-6.977c.615-2.322,2.85-4.881,5.441-4.844,3.077.046,6.745,1.5,9.715,2.258a38.865,38.865,0,0,1,10.673,3.951,15.964,15.964,0,0,1,6.449,6.9,11.707,11.707,0,0,1,.611,1.721A5.4,5.4,0,0,1,602.069,703.231Z" transform="translate(-321.944 -405.207)" fill="#a26565"/><path d="M603.542,716.961c-1.069,2.036-3.7,2.609-6.014,2.642a25.4,25.4,0,0,1-9.4-1.68,54.684,54.684,0,0,0-5.121-1.985c-2.632-.722-5.552-.662-7.865-2.11a9.252,9.252,0,0,1-2.956-3.206c-.134-.227-.264-.463-.384-.7.463.037.888.083,1.12.106a46.213,46.213,0,0,1,8.263,2.091,46.411,46.411,0,0,0,11.566,1.8,15.6,15.6,0,0,0,8.1-1.48,21.243,21.243,0,0,1,2.248-1.235,11.71,11.71,0,0,1,.611,1.721A5.486,5.486,0,0,1,603.542,716.961Z" transform="translate(-323.416 -418.937)" opacity="0.1"/><path d="M610.238,532.927A149.058,149.058,0,0,0,592,531.46l-7.458-.3a3.38,3.38,0,0,0-1.568.19,10.2,10.2,0,0,0-1.226.925,5.072,5.072,0,0,1-2.609.615,129.891,129.891,0,0,0-19.042,2.47c-3.238.662-6.6,1.527-9.035,3.761-2.572,2.364-3.7,5.968-3.789,9.456a34.258,34.258,0,0,0,1.8,10.266,46.766,46.766,0,0,1,2.022,12.427,23.251,23.251,0,0,0,.134,3.5,16.745,16.745,0,0,0,.976,3.239l3.4,9.091c.3.8.6,1.587.925,2.364s.643,1.388.925,2.119c.417,1,.745,2.036,1.073,3.067l2.267,7.12.3.925a26.749,26.749,0,0,0,3.2,7.375,9.031,9.031,0,0,0,6.625,4.113,20.289,20.289,0,0,1,2.6.069,10.508,10.508,0,0,1,2.133.773,16.271,16.271,0,0,0,6.37,1.244c2.013,0,4.247-.56,5.339-2.253a7.851,7.851,0,0,0,.925-3.155c.291-2.193.574-4.483-.171-6.565-.463-1.245-1.24-2.313-1.776-3.539a35.973,35.973,0,0,1-1.481-5.279A20.162,20.162,0,0,0,578.7,585.7a96.481,96.481,0,0,1-2.313-12.667,11.146,11.146,0,0,0-.56-2.776c-.541-1.388-1.638-2.512-2.1-3.928-.43-1.314-.3-2.831-1.082-3.965,6.509,1.79,12.954,1.388,19.713,1.282a53.856,53.856,0,0,0,6.477-.37,20.364,20.364,0,0,1,3.035-.324c2.091,0,4.053.925,5.973,1.74,5.427,2.313,11.145,4.131,17.039,4.381,6.084.254,12.1-1.175,18.043-2.591,2.614-.625,5.329-1.3,7.4-3.016s3.239-4.812,1.962-7.166c-.972-1.772-2.984-2.642-4.863-3.382-5.2-2.054-10.428-4.057-15.438-6.542C624.345,542.642,618.622,534.314,610.238,532.927Z" transform="translate(-310.233 -322.868)" fill="#454b69"/><path d="M654.976,478.1a45.454,45.454,0,0,1-2.85,4.34,11,11,0,0,0-1.388,8.166,9.29,9.29,0,0,0,5.2,6.334,13.06,13.06,0,0,0,3.609.87,7.969,7.969,0,0,0,4.8-.546,7.013,7.013,0,0,0,2.558-2.674,27.112,27.112,0,0,0,2.6-6.764,44.225,44.225,0,0,0,2.073-13.208c-.051-1.541-.356-3.275-1.633-4.164a5.493,5.493,0,0,0-2.147-.7l-6.1-1.092c-1.18-.213-3.239-1.078-4.261-.227s-1.1,3.368-1.277,4.548A19.2,19.2,0,0,1,654.976,478.1Z" transform="translate(-365.695 -288.974)" fill="#a1616a"/><path d="M804.8,444.993l-1.6,13.38a61.543,61.543,0,0,0-.569,7.2c0,1.342.042,2.831-.847,3.835a3.5,3.5,0,0,1-1.591.958,8.532,8.532,0,0,1-5.9-.763,4.882,4.882,0,0,1-2.679-2.211,5.5,5.5,0,0,1-.347-2.346c0-7.98.754-16.3,4.923-23.1a5.036,5.036,0,0,1,1.466-1.693,4.818,4.818,0,0,1,3.979-.13c.8.245,2.979.518,3.493,1.235S804.907,444.073,804.8,444.993Z" transform="translate(-441.34 -273.76)" fill="#a1616a"/><circle cx="16.655" cy="16.655" r="16.655" transform="translate(304.456 89.54)" fill="#a1616a"/><path d="M713.062,340.366a8.592,8.592,0,0,1-1.032,3.7q12.755-1.943,25.445-4.33a11.949,11.949,0,0,1-5.9-6.94,19.593,19.593,0,0,1-.749-4.946,57.192,57.192,0,0,1,.153-7.962,40.406,40.406,0,0,0-8.587,2.373,84.65,84.65,0,0,1-8.647,2.42c-1.411.315-2.831.583-4.256.833-1.666.3-2.466.291-1.309,1.753C711.281,331.174,713.5,335.143,713.062,340.366Z" transform="translate(-396.406 -209.35)" fill="#a1616a"/><path d="M692.7,354.506c-2.2.328-4.5.7-6.255,2.059a23.562,23.562,0,0,0-1.9,1.827c-3.484,3.382-8.4,4.742-12.63,7.129a5.552,5.552,0,0,0-1.8,1.411c-.463.643-.7,1.462-1.184,2.1-.564.74-1.457,1.2-1.9,2.022a5.705,5.705,0,0,0-.389,2.558,23.812,23.812,0,0,1-1.388,5.552c-2.568,8.749-1.161,18.506-5.047,26.768a3.762,3.762,0,0,0,2.045,2.137,11.613,11.613,0,0,0,3.035.652l8.61,1.069a6.8,6.8,0,0,0,3.659-.217,43,43,0,0,0-2.17,8.758,43.61,43.61,0,0,1-.971,5.422,18.179,18.179,0,0,1-7.694,9.78,2.846,2.846,0,0,0-1.087,1c-.463.925.222,1.962.708,2.868,1.411,2.628,1.217,5.783,1.2,8.762s.282,6.25,2.364,8.388a12.647,12.647,0,0,0,4.552,2.6l13.467,5.381a46.939,46.939,0,0,0,6.856,2.313,40.94,40.94,0,0,0,10.877.62q3.609-.153,7.208-.463a5.607,5.607,0,0,0,2.725-.717,5.088,5.088,0,0,0,1.6-2.165c1.874-4.076,2.5-8.832,5.408-12.246,1.994-2.346,5.089-4.219,5.316-7.286.106-1.527-.574-3.012-.583-4.543,0-1.883.985-3.673.925-5.552-.125-3.058-3.007-5.39-3.465-8.415-1.166-7.671,2.73-15.332,5.121-22.711.43-1.319.985-2.776,2.253-3.34s3.053-.268,3.507-1.517a26.964,26.964,0,0,0,1.268-10.15c-.083-1.929-.768-3.817-.689-5.751.056-1.36.49-2.683.606-4.039a17.143,17.143,0,0,0-.925-6.065,9.5,9.5,0,0,0-.722-2.045,9.709,9.709,0,0,0-1.2-1.652l-2.253-2.679a10.334,10.334,0,0,0-3.7-3.188c-.5-1.226-2.077-2.073-3.211-2.748a32.892,32.892,0,0,0-3.535-1.735l-12.741-5.626a5.216,5.216,0,0,0-1.513-.49,4.9,4.9,0,0,0-2.248.463A55.731,55.731,0,0,1,692.7,354.506Z" transform="translate(-370.924 -225.715)" fill="#00baf2"/><path d="M698.38,284.693c-.49-1.726-1.744-3.215-1.934-5-.171-1.587.528-3.123.925-4.668s.384-3.433-.842-4.46c-.2-.176-.463-.333-.537-.592-.148-.463.319-.884.463-1.351.264-.925-.879-1.948-.463-2.836.236-.486.828-.657,1.346-.81,1.98-.588,3.988-1.892,4.418-3.914,1.55.648,3.2-.569,4.391-1.749s2.651-2.526,4.289-2.17l-.365.745a11.844,11.844,0,0,1,7.832-.088h-.777a10.743,10.743,0,0,1,6.195,2.1c-.2,0-.217.3-.139.463.648,1.513,2.313,2.313,3.919,2.688a5.559,5.559,0,0,1,2.725,1.092c.708.694.722,2.142-.213,2.475a24.339,24.339,0,0,1,5.371,2.915c.463.338.985.8.925,1.388a4.52,4.52,0,0,1-.287.865,2.993,2.993,0,0,0,.1,1.48l.513,2.119c.564,2.355,1.009,5.191-.708,6.9a6.333,6.333,0,0,1-1.115,7.476,3.081,3.081,0,0,1-2.313,3.983,2.075,2.075,0,0,1-.851,2.711,4.947,4.947,0,0,1-3.072.463,13.114,13.114,0,0,0-3.151-.176c-1.522.236-3.012,1.272-4.478.81a10.045,10.045,0,0,1-1.568-.842,12.727,12.727,0,0,0-3.359-.925,15.516,15.516,0,0,1-5.427-2.313,6.36,6.36,0,0,1-2.494-2.776c-1.018-2.572.694-5.945-1.106-8.041a3.178,3.178,0,0,0-4.326-.194c-.588.523-.666,1.624-1.277,2.017A8.072,8.072,0,0,1,698.38,284.693Z" transform="translate(-390.103 -175.601)" fill="#464353"/><path d="M649.684,598.572A7.628,7.628,0,0,1,648,596.722a3.451,3.451,0,0,1-.509-2.392,6.842,6.842,0,0,0,1.8,5.885c1.161,1.189,3.34,2.355,5.038,1.948C654.093,600.8,650.762,599.488,649.684,598.572Z" transform="translate(-364.039 -356.823)" opacity="0.1"/><path d="M739.361,440.123s-9.864-5.718-22.882,1.388-15.188,48.924-15.188,48.924,5.325,42.6-15.207,33.125c0,0-37.474-11.635-41.226-9.072,0,0-3.553,0,3.548,1.578s34.536,10.271,34.536,10.271,8.869,3.1,12.625,0,14.4.4,15.785-20.911a370.586,370.586,0,0,1,4.932-40.046l3.66-10.849Z" transform="translate(-362.197 -272.79)" fill="#565661"/><path d="M800.494,506.934s-4.34-43.2,2.776-58.788c6.19-13.583-17.747-7.231-23.993-5.381a4.548,4.548,0,0,0-2.4,1.712c-3.7,5.2-16.979,26.065-13.065,53.976,0,0,1.578,24.858-8.286,28.8l30.391-9.789c2.466-.8,4.969-1.457,7.495-2.031C796.636,514.7,801.882,512.625,800.494,506.934Z" transform="translate(-422.145 -273.712)" fill="#fff"/><ellipse cx="45.08" cy="7.24" rx="45.08" ry="7.24" transform="translate(412.941 302.748)" fill="#6c63ff" opacity="0.1"/><rect width="2.901" height="65.311" transform="translate(456.568 171.284)" fill="#535461"/><path d="M1021.738,586.782l-.18,2.942-.259,4.164-.106,1.73-.254,4.164-.111,1.73-.259,4.164-2.924,47.222a8,8,0,0,1-7.985,7.476H994.452a8,8,0,0,1-7.976-7.5l-2.933-47.226-.254-4.164-.106-1.73-.264-4.164-.106-1.73-.254-4.164-.185-2.943a4.164,4.164,0,0,1,4.136-4.4h31.1a4.164,4.164,0,0,1,4.131,4.432Z" transform="translate(-544.037 -350.386)" fill="#565661"/><path d="M986.821,517.36l-.259,4.15H948.079l-.259-4.15Z" transform="translate(-509.3 -278.021)" fill="#9d9cb5"/><path d="M986.88,530.08l-.254,4.154H948.869l-.259-4.154Z" transform="translate(-509.725 -284.857)" fill="#9d9cb5"/><path d="M986.939,542.8l-.259,4.15h-37.02l-.259-4.15Z" transform="translate(-510.149 -291.692)" fill="#9d9cb5"/><path d="M929.932,489.1c16.9,12.223,23.932,31.339,23.932,31.339s-20.356-.7-37.256-12.922S892.68,476.18,892.68,476.18,913.041,476.879,929.932,489.1Z" transform="translate(-495.844 -293.334)" fill="#00baf2"/><path d="M892.68,476.18s21.129,11.728,27.911,21.439,33.273,22.818,33.273,22.818" transform="translate(-495.844 -293.334)" fill="none" stroke="#535461" stroke-miterlimit="10" stroke-width="2"/><path d="M973.25,442.712c9.2,6.648,13.028,17.058,13.028,17.058s-11.1-.384-20.277-7.032-13-17.058-13-17.058S964.057,436.059,973.25,442.712Z" transform="translate(-528.258 -271.571)" fill="#00baf2"/><path d="M953,435.68s11.5,6.384,15.188,11.668S986.3,459.77,986.3,459.77" transform="translate(-528.258 -271.571)" fill="none" stroke="#535461" stroke-miterlimit="10" stroke-width="2"/><path d="M1038.947,468.867c-10.562,11.608-12.8,26.778-12.8,26.778s14.892-3.655,25.445-15.267,12.8-26.778,12.8-26.778S1049.509,457.259,1038.947,468.867Z" transform="translate(-567.565 -281.201)" fill="#00baf2"/><path d="M1064.4,453.61s-13.759,11.9-17.257,20.1-20.995,21.943-20.995,21.943" transform="translate(-567.565 -281.206)" fill="none" stroke="#535461" stroke-miterlimit="10" stroke-width="2"/><path d="M555.609,404.378v1.055H524.33v-.856a10.512,10.512,0,0,0,2.415-1.286,10.276,10.276,0,0,0,4.293-8.355,10.144,10.144,0,0,0-.319-2.531,10.284,10.284,0,0,0-5.681-6.815H555.4a10.285,10.285,0,0,0-5.681,6.815,10.139,10.139,0,0,0-.315,2.531,10.271,10.271,0,0,0,4.289,8.355,10.586,10.586,0,0,0,1.92,1.087Z" transform="translate(-297.907 -244.655)" fill="#dfe6f5"/><path d="M556.218,385.59a10.285,10.285,0,0,0-5.681,6.815h-19a10.285,10.285,0,0,0-5.681-6.815Z" transform="translate(-298.73 -244.655)" opacity="0.1"/><path d="M446.92,373.94v5.94a5.669,5.669,0,0,0,5.357,5.936H544.3a5.673,5.673,0,0,0,5.362-5.936v-5.94Z" transform="translate(-256.311 -238.395)" fill="#dfe6f5"/><path d="M555.609,424.937v1.055H524.33v-.856a10.512,10.512,0,0,0,2.415-1.286h26.944a10.583,10.583,0,0,0,1.92,1.087Z" transform="translate(-297.907 -265.214)" opacity="0.1"/><rect width="51.95" height="3.132" rx="1.566" transform="translate(216.087 158.964)" fill="#dfe6f5"/><path d="M549.663,227.087a5.357,5.357,0,0,0-5.362-5.357H452.277a5.353,5.353,0,0,0-5.357,5.357v66.218H549.663Z" transform="translate(-256.311 -156.603)" fill="#474157"/><path d="M550.116,235.417v56.9a2.637,2.637,0,0,1-2.637,2.642H455.617a2.637,2.637,0,0,1-2.637-2.642v-56.9a2.6,2.6,0,0,1,.352-1.319,2.637,2.637,0,0,1,2.286-1.318h91.862a2.637,2.637,0,0,1,2.637,2.637Z" transform="translate(-259.567 -162.541)" fill="#4c4c78"/><circle cx="1.235" cy="1.235" r="1.235" transform="translate(240.746 66.445)" fill="#fff"/><circle cx="3.049" cy="3.049" r="3.049" transform="translate(238.932 138.682)" fill="#fff"/><path d="M550.127,235.417H453a2.637,2.637,0,0,1,2.637-2.637H547.49a2.637,2.637,0,0,1,2.637,2.637Z" transform="translate(-259.578 -162.541)" fill="#c8cad7"/><circle cx="0.662" cy="0.662" r="0.662" transform="translate(195.389 70.896)" fill="#ededf4"/><circle cx="0.662" cy="0.662" r="0.662" transform="translate(197.369 70.896)" fill="#ededf4"/><circle cx="0.662" cy="0.662" r="0.662" transform="translate(199.349 70.896)" fill="#ededf4"/></g></svg>