<svg id="logo-twitter" xmlns="http://www.w3.org/2000/svg" width="59.647" height="48.537" viewBox="0 0 59.647 48.537">
  <defs>
    <style>
      .cls-1 {
        fill: #eff1f5;
      }
    </style>
  </defs>
  <path id="Path_151" data-name="Path 151" class="cls-1" d="M79.747,69.751a24.74,24.74,0,0,1-7.028,1.934A12.28,12.28,0,0,0,78.1,64.91a24.316,24.316,0,0,1-7.773,2.97,12.234,12.234,0,0,0-21.172,8.368,11.981,11.981,0,0,0,.316,2.793,34.68,34.68,0,0,1-25.229-12.8,12.262,12.262,0,0,0,3.8,16.356,11.952,11.952,0,0,1-5.562-1.529v.152A12.248,12.248,0,0,0,32.31,93.223a12.319,12.319,0,0,1-3.223.43,11.545,11.545,0,0,1-2.3-.228,12.257,12.257,0,0,0,11.439,8.507,24.535,24.535,0,0,1-15.206,5.246A24.806,24.806,0,0,1,20.1,107a34.206,34.206,0,0,0,18.732,5.536c22.537,0,34.848-18.669,34.848-34.861,0-.531-.013-1.062-.038-1.58A24.911,24.911,0,0,0,79.747,69.751Z" transform="translate(-20.1 -64)"/>
</svg>
