<svg id="logo-linkedin" xmlns="http://www.w3.org/2000/svg" width="48.524" height="48.524" viewBox="0 0 48.524 48.524">
  <defs>
    <style>
      .cls-1 {
        fill: #eff1f5;
      }
    </style>
  </defs>
  <path id="Path_152" data-name="Path 152" class="cls-1" d="M108.644,64h-40.5A3.959,3.959,0,0,0,64,67.779v40.586a4.27,4.27,0,0,0,4.146,4.158h40.485a4.053,4.053,0,0,0,3.893-4.158V67.779A3.721,3.721,0,0,0,108.644,64Zm-29.6,40.447H72.089V82.833h6.952Zm-3.236-24.9h-.051a3.78,3.78,0,1,1,.051,0Zm28.642,24.9H97.5V92.629c0-2.831-1.011-4.765-3.527-4.765A3.8,3.8,0,0,0,90.4,90.43a4.68,4.68,0,0,0-.24,1.706v12.311H83.212V82.833h6.952v3.008a7.037,7.037,0,0,1,6.269-3.514c4.563,0,8.014,3.008,8.014,9.492Z" transform="translate(-64 -64)"/>
</svg>
