<svg id="logo-facebook" xmlns="http://www.w3.org/2000/svg" width="48.537" height="48.537" viewBox="0 0 48.537 48.537">
  <defs>
    <style>
      .cls-1 {
        fill: #eff1f5;
      }
    </style>
  </defs>
  <path id="Path_150" data-name="Path 150" class="cls-1" d="M109.857,64H66.68A2.681,2.681,0,0,0,64,66.68v43.178a2.681,2.681,0,0,0,2.68,2.68H88.268V93.324h-5.8V86.246h5.8V81.013c0-6.269,4.348-9.682,9.948-9.682,2.68,0,5.562.2,6.231.291v6.547H99.986c-3.046,0-3.628,1.441-3.628,3.564v4.512h7.255l-.948,7.078H96.358v19.212h13.5a2.681,2.681,0,0,0,2.68-2.68V66.68A2.681,2.681,0,0,0,109.857,64Z" transform="translate(-64 -64)"/>
</svg>
