<svg id="md-call" xmlns="http://www.w3.org/2000/svg" width="23.833" height="23.833" viewBox="0 0 23.833 23.833">
  <defs>
    <style>
      .cls-1 {
        fill: #eff1f5;
      }
    </style>
  </defs>
  <path id="Path_154" data-name="Path 154" class="cls-1" d="M86.509,80.551a15.539,15.539,0,0,1-4.7-.728,1.239,1.239,0,0,0-1.324.331l-2.913,2.913a19.911,19.911,0,0,1-8.739-8.739l2.913-2.913a1.38,1.38,0,0,0,.331-1.324,14.4,14.4,0,0,1-.795-4.767A1.328,1.328,0,0,0,69.958,64H65.324A1.328,1.328,0,0,0,64,65.324,22.49,22.49,0,0,0,86.509,87.833a1.328,1.328,0,0,0,1.324-1.324V81.875A1.328,1.328,0,0,0,86.509,80.551Z" transform="translate(-64 -64)"/>
</svg>
